<svg xmlns="http://www.w3.org/2000/svg" width="1394" height="257"><defs><linearGradient id="a" x1="50.043%" x2="49.957%" y1="3.832%" y2="100%"><stop offset="0%" stop-color="#08CEA4"/><stop offset="100%" stop-color="#C0FECF" stop-opacity="0"/></linearGradient></defs><g fill="url(#a)" fill-rule="evenodd"><rect width="4" height="137" x="190" rx="2"/><rect width="4" height="137" x="200" y="10" rx="2"/><rect width="4" height="137" x="180" y="10" rx="2"/><rect width="4" height="137" x="210" y="20" rx="2"/><rect width="4" height="137" x="170" y="20" rx="2"/><rect width="4" height="137" x="160" y="10" rx="2"/><rect width="4" height="137" x="150" y="20" rx="2"/><rect width="4" height="137" x="140" y="30" rx="2"/><rect width="4" height="137" x="130" y="40" rx="2"/><rect width="4" height="137" x="120" y="30" rx="2"/><rect width="4" height="137" x="110" y="40" rx="2"/><rect width="4" height="137" x="100" y="50" rx="2"/><rect width="4" height="137" x="90" y="60" rx="2"/><rect width="4" height="137" x="80" y="70" rx="2"/><rect width="4" height="137" x="70" y="60" rx="2"/><rect width="4" height="137" x="60" y="50" rx="2"/><rect width="4" height="137" x="50" y="60" rx="2"/><rect width="4" height="137" x="40" y="50" rx="2"/><rect width="4" height="137" x="30" y="40" rx="2"/><rect width="4" height="137" x="20" y="30" rx="2"/><rect width="4" height="137" x="10" y="40" rx="2"/><rect width="4" height="137" y="50" rx="2"/><rect width="4" height="137" x="410" y="20" rx="2"/><rect width="4" height="137" x="420" y="30" rx="2"/><rect width="4" height="137" x="400" y="20" rx="2"/><rect width="4" height="137" x="430" y="40" rx="2"/><rect width="4" height="137" x="390" y="30" rx="2"/><rect width="4" height="137" x="380" y="20" rx="2"/><rect width="4" height="137" x="370" y="30" rx="2"/><rect width="4" height="137" x="360" y="40" rx="2"/><rect width="4" height="137" x="350" y="40" rx="2"/><rect width="4" height="137" x="340" y="30" rx="2"/><rect width="4" height="137" x="330" y="40" rx="2"/><rect width="4" height="137" x="320" y="50" rx="2"/><rect width="4" height="137" x="310" y="50" rx="2"/><rect width="4" height="137" x="300" y="60" rx="2"/><rect width="4" height="137" x="290" y="50" rx="2"/><rect width="4" height="137" x="280" y="40" rx="2"/><rect width="4" height="137" x="270" y="50" rx="2"/><rect width="4" height="137" x="260" y="40" rx="2"/><rect width="4" height="137" x="250" y="30" rx="2"/><rect width="4" height="137" x="240" y="30" rx="2"/><rect width="4" height="137" x="610" y="50" rx="2"/><rect width="4" height="137" x="620" y="50" rx="2"/><rect width="4" height="137" x="600" y="50" rx="2"/><rect width="4" height="137" x="630" y="60" rx="2"/><rect width="4" height="137" x="590" y="50" rx="2"/><rect width="4" height="137" x="580" y="41" rx="2"/><rect width="4" height="137" x="570" y="50" rx="2"/><rect width="4" height="137" x="560" y="60" rx="2"/><rect width="4" height="137" x="550" y="60" rx="2"/><rect width="4" height="137" x="540" y="50" rx="2"/><rect width="4" height="137" x="530" y="60" rx="2"/><rect width="4" height="137" x="520" y="70" rx="2"/><rect width="4" height="137" x="510" y="70" rx="2"/><rect width="4" height="137" x="500" y="80" rx="2"/><rect width="4" height="137" x="490" y="70" rx="2"/><rect width="4" height="137" x="480" y="60" rx="2"/><rect width="4" height="137" x="470" y="70" rx="2"/><rect width="4" height="137" x="460" y="60" rx="2"/><rect width="4" height="137" x="790" y="60" rx="2"/><rect width="4" height="137" x="800" y="60" rx="2"/><rect width="4" height="137" x="780" y="50" rx="2"/><rect width="4" height="137" x="810" y="60" rx="2"/><rect width="4" height="137" x="770" y="50" rx="2"/><rect width="4" height="137" x="760" y="41" rx="2"/><rect width="4" height="137" x="750" y="50" rx="2"/><rect width="4" height="137" x="740" y="60" rx="2"/><rect width="4" height="137" x="730" y="60" rx="2"/><rect width="4" height="137" x="720" y="50" rx="2"/><rect width="4" height="137" x="710" y="60" rx="2"/><rect width="4" height="137" x="700" y="70" rx="2"/><rect width="4" height="137" x="690" y="70" rx="2"/><rect width="4" height="137" x="680" y="80" rx="2"/><rect width="4" height="137" x="670" y="70" rx="2"/><rect width="4" height="137" x="660" y="60" rx="2"/><rect width="4" height="137" x="650" y="70" rx="2"/><rect width="4" height="137" x="640" y="60" rx="2"/><rect width="4" height="137" x="970" y="80" rx="2"/><rect width="4" height="137" x="980" y="80" rx="2"/><rect width="4" height="137" x="960" y="80" rx="2"/><rect width="4" height="137" x="990" y="90" rx="2"/><rect width="4" height="137" x="950" y="80" rx="2"/><rect width="4" height="137" x="940" y="71" rx="2"/><rect width="4" height="137" x="930" y="60" rx="2"/><rect width="4" height="137" x="920" y="70" rx="2"/><rect width="4" height="137" x="910" y="70" rx="2"/><rect width="4" height="137" x="900" y="60" rx="2"/><rect width="4" height="137" x="890" y="70" rx="2"/><rect width="4" height="137" x="880" y="80" rx="2"/><rect width="4" height="137" x="870" y="80" rx="2"/><rect width="4" height="137" x="860" y="90" rx="2"/><rect width="4" height="137" x="850" y="80" rx="2"/><rect width="4" height="137" x="840" y="70" rx="2"/><rect width="4" height="137" x="830" y="80" rx="2"/><rect width="4" height="137" x="820" y="70" rx="2"/><rect width="4" height="137" x="450" y="50" rx="2"/><rect width="4" height="137" x="440" y="50" rx="2"/><rect width="4" height="137" x="1010" y="80" rx="2"/><rect width="4" height="137" x="1020" y="70" rx="2"/><rect width="4" height="137" x="1000" y="80" rx="2"/><rect width="4" height="137" x="1030" y="80" rx="2"/><rect width="4" height="137" x="1190" y="90" rx="2"/><rect width="4" height="137" x="1180" y="81" rx="2"/><rect width="4" height="137" x="1170" y="90" rx="2"/><rect width="4" height="137" x="1160" y="100" rx="2"/><rect width="4" height="137" x="1150" y="100" rx="2"/><rect width="4" height="137" x="1140" y="90" rx="2"/><rect width="4" height="137" x="1130" y="100" rx="2"/><rect width="4" height="137" x="1120" y="110" rx="2"/><rect width="4" height="137" x="1110" y="110" rx="2"/><rect width="4" height="137" x="1270" y="60" rx="2"/><rect width="4" height="137" x="1260" y="51" rx="2"/><rect width="4" height="137" x="1250" y="60" rx="2"/><rect width="4" height="137" x="1240" y="70" rx="2"/><rect width="4" height="137" x="1230" y="70" rx="2"/><rect width="4" height="137" x="1220" y="60" rx="2"/><rect width="4" height="137" x="1210" y="70" rx="2"/><rect width="4" height="137" x="1200" y="80" rx="2"/><rect width="4" height="137" x="1190" y="80" rx="2"/><rect width="4" height="137" x="1360" y="50" rx="2"/><rect width="4" height="137" x="1350" y="41" rx="2"/><rect width="4" height="137" x="1340" y="50" rx="2"/><rect width="4" height="137" x="1330" y="60" rx="2"/><rect width="4" height="137" x="1320" y="60" rx="2"/><rect width="4" height="137" x="1310" y="50" rx="2"/><rect width="4" height="137" x="1300" y="60" rx="2"/><rect width="4" height="137" x="1290" y="70" rx="2"/><rect width="4" height="137" x="1280" y="70" rx="2"/><rect width="4" height="137" x="1390" y="40" rx="2"/><rect width="4" height="137" x="1380" y="50" rx="2"/><rect width="4" height="137" x="1370" y="40" rx="2"/><rect width="4" height="137" x="1100" y="120" rx="2"/><rect width="4" height="137" x="1090" y="110" rx="2"/><rect width="4" height="137" x="1080" y="100" rx="2"/><rect width="4" height="137" x="1070" y="110" rx="2"/><rect width="4" height="137" x="1060" y="100" rx="2"/><rect width="4" height="137" x="1050" y="90" rx="2"/><rect width="4" height="137" x="1040" y="90" rx="2"/><rect width="4" height="137" x="230" y="20" rx="2"/><rect width="4" height="137" x="220" y="30" rx="2"/></g></svg>